<?xml version="1.0" encoding="utf-8"?>
<!-- Generator: Adobe Illustrator 26.5.0, SVG Export Plug-In . SVG Version: 6.00 Build 0)  -->
<svg version="1.1" id="Layer_1" xmlns="http://www.w3.org/2000/svg" xmlns:xlink="http://www.w3.org/1999/xlink" x="0px" y="0px"
	 viewBox="0 0 512 512" style="enable-background:new 0 0 512 512;" xml:space="preserve">
<style type="text/css">
	.st0{fill:#E8601A;}
</style>
<g>
	<path class="st0" d="M502,452h-26V342.2c0-5.5-4.5-10-10-10s-10,4.5-10,10V452h-52V142.3h52v109.8c0,5.5,4.5,10,10,10s10-4.5,10-10
		V132.3c0-5.5-4.5-10-10-10h-72c-5.5,0-10,4.5-10,10V452h-24V207.7c0-5.5-4.5-10-10-10h-72c-5.5,0-10,4.5-10,10V452h-24.3V327
		c0-5.5-4.5-10-10-10h-72c-5.5,0-10,4.5-10,10v125H128v-62c0-5.5-4.5-10-10-10H46c-5.5,0-10,4.5-10,10v62H10c-5.5,0-10,4.5-10,10v40
		c0,5.5,4.5,10,10,10h492c5.5,0,10-4.5,10-10v-40C512,456.5,507.5,452,502,452z M288,217.7h52V452h-52V217.7z M171.7,337h52v115h-52
		V337z M56,400h52v52H56V400z M492,492H20v-20h472V492z"/>
	<path class="st0" d="M46,180.2h43.1c39.8,0,79.8-4.5,118.6-13.3c93.6-21.3,179.4-67.2,248.9-133v5.7c0,5.5,4.5,10,10,10
		s10-4.5,10-10V10c0-5.5-4.5-10-10-10h-29.5c-5.5,0-10,4.5-10,10s4.5,10,10,10h5.1c-66.9,63-149.1,106.9-238.9,127.3
		c-37.4,8.5-75.8,12.8-114.2,12.8H46c-5.5,0-10,4.5-10,10S40.5,180.2,46,180.2z"/>
	<path class="st0" d="M466,287.2c-2.6,0-5.2,1.1-7.1,2.9c-1.9,1.9-2.9,4.4-2.9,7.1c0,2.6,1.1,5.2,2.9,7.1c1.9,1.9,4.4,2.9,7.1,2.9
		s5.2-1.1,7.1-2.9c1.9-1.9,2.9-4.4,2.9-7.1c0-2.6-1.1-5.2-2.9-7.1C471.2,288.2,468.6,287.2,466,287.2z"/>
</g>
</svg>
